<svg xmlns="http://www.w3.org/2000/svg" xmlns:xlink="http://www.w3.org/1999/xlink" width="199.724" height="32.304" viewBox="0 0 199.724 32.304">
  <defs>
    <linearGradient id="linear-gradient" y1="0.5" x2="1" y2="0.5" gradientUnits="objectBoundingBox">
      <stop offset="0" stop-color="#89acf4"/>
      <stop offset="0.292" stop-color="#9c9dee"/>
      <stop offset="0.725" stop-color="#b38be7"/>
      <stop offset="1" stop-color="#bb84e5"/>
    </linearGradient>
    <linearGradient id="linear-gradient-2" y1="0.5" x2="1" y2="0.5" gradientUnits="objectBoundingBox">
      <stop offset="0" stop-color="#89acf4" stop-opacity="0"/>
      <stop offset="1" stop-color="#a931d9"/>
    </linearGradient>
    <linearGradient id="linear-gradient-3" y1="0.5" x2="1" y2="0.5" gradientUnits="objectBoundingBox">
      <stop offset="0" stop-color="#9d6be6"/>
      <stop offset="1" stop-color="#89c2f4"/>
    </linearGradient>
    <linearGradient id="linear-gradient-4" y1="0.5" x2="1" y2="0.5" gradientUnits="objectBoundingBox">
      <stop offset="0" stop-color="#89acf4"/>
      <stop offset="1" stop-color="#bb84e6"/>
    </linearGradient>
    <linearGradient id="linear-gradient-5" y1="0.5" x2="1" y2="0.5" gradientUnits="objectBoundingBox">
      <stop offset="0" stop-color="#4f88f4" stop-opacity="0.6"/>
      <stop offset="1" stop-color="#bb84e6" stop-opacity="0"/>
    </linearGradient>
    <linearGradient id="linear-gradient-6" x1="0.626" y1="0.721" x2="0.173" y2="0.032" gradientUnits="objectBoundingBox">
      <stop offset="0" stop-color="#89acf4"/>
      <stop offset="0.278" stop-color="#8784ea" stop-opacity="0.863"/>
      <stop offset="0.9" stop-color="#8220d1" stop-opacity="0.549"/>
      <stop offset="1" stop-color="#810fcd" stop-opacity="0.502"/>
      <stop offset="1" stop-color="#9493c6"/>
    </linearGradient>
    <linearGradient id="linear-gradient-7" x1="0.334" y1="0.858" x2="0.626" y2="-0.37" gradientUnits="objectBoundingBox">
      <stop offset="0" stop-color="#ba89e7"/>
      <stop offset="0.015" stop-color="#b889e6"/>
      <stop offset="0.292" stop-color="#968ed7"/>
      <stop offset="0.556" stop-color="#7e91cd"/>
      <stop offset="0.799" stop-color="#6f93c6"/>
      <stop offset="1" stop-color="#6a94c4"/>
    </linearGradient>
    <linearGradient id="linear-gradient-8" x1="0.722" y1="1.035" x2="0.286" y2="-0.006" gradientUnits="objectBoundingBox">
      <stop offset="0" stop-color="#89acf4"/>
      <stop offset="0.121" stop-color="#89a4f2" stop-opacity="0.941"/>
      <stop offset="0.308" stop-color="#878eed" stop-opacity="0.847"/>
      <stop offset="0.538" stop-color="#866ae4" stop-opacity="0.729"/>
      <stop offset="0.8" stop-color="#8339d8" stop-opacity="0.6"/>
      <stop offset="1" stop-color="#810fcd" stop-opacity="0.502"/>
      <stop offset="1" stop-color="#9493c6"/>
    </linearGradient>
  </defs>
  <g id="logo" transform="translate(-77 -104)">
    <g id="WE." transform="translate(77 104)">
      <path id="Path_19" data-name="Path 19" d="M980.05,160.019h0c0-4.164,3.954-7.541,8.831-7.541a9.547,9.547,0,0,1,6.51,2.446h1.58a4.543,4.543,0,0,0,2.32-8.45,21.213,21.213,0,0,0-10.3-2.6c-10.444,0-18.911,7.23-18.911,16.148h9.97Z" transform="translate(-931.436 -143.865)" fill="url(#linear-gradient)"/>
      <path id="Path_20" data-name="Path 20" d="M980.05,160.019h0c0-4.164,3.954-7.541,8.831-7.541a9.547,9.547,0,0,1,6.51,2.446h1.58a4.543,4.543,0,0,0,2.32-8.45,21.213,21.213,0,0,0-10.3-2.6c-10.444,0-18.911,7.23-18.911,16.148h9.97Z" transform="translate(-931.436 -143.865)" opacity="0.3" fill="url(#linear-gradient-2)"/>
      <path id="Path_21" data-name="Path 21" d="M1002.8,545.164H988.871v-.023a9.548,9.548,0,0,1-6.508-2.444,7.164,7.164,0,0,1-2.18-3.739,6.487,6.487,0,0,1-.143-1.358c0-.034,0-.067,0-.1h-9.971c0,.033,0,.067,0,.1,0,8.887,8.407,16.1,18.8,16.148h13.784l.143,0a4.294,4.294,0,1,0,0-8.587Z" transform="translate(-931.427 -521.448)" fill="url(#linear-gradient-3)"/>
      <path id="Path_22" data-name="Path 22" d="M1201.868,221.07h0c-.03-5.643-3.449-10.6-8.61-13.47a4.543,4.543,0,0,1-2.32,8.45h-10.414v.029a5.092,5.092,0,0,0-4.207,2.219h0a5.178,5.178,0,0,0-.353.6h0l-1.29,2.579h0l-.513,1.027-1.87,3.739h24.571a5.119,5.119,0,0,0,.879-.091,5.064,5.064,0,0,0,1.382-.481q.107-.056.211-.117.209-.121.4-.261.1-.07.191-.144c.063-.049.124-.1.185-.153.091-.079.178-.16.263-.245a5.116,5.116,0,0,0,1.08-1.592c.016-.037.031-.075.046-.113.031-.076.059-.152.086-.229q.081-.232.139-.475a5.075,5.075,0,0,0,.141-1.129c0-.022,0-.044,0-.066S1201.868,221.1,1201.868,221.07Z" transform="translate(-1125.402 -204.997)" fill="url(#linear-gradient-4)"/>
      <path id="Path_23" data-name="Path 23" d="M1201.868,221.07h0c-.03-5.643-3.449-10.6-8.61-13.47a4.543,4.543,0,0,1-2.32,8.45h-10.414v.029a5.092,5.092,0,0,0-4.207,2.219h0a5.178,5.178,0,0,0-.353.6h0l-1.29,2.579h0l-.513,1.027-1.87,3.739h24.571a5.119,5.119,0,0,0,.879-.091,5.064,5.064,0,0,0,1.382-.481q.107-.056.211-.117.209-.121.4-.261.1-.07.191-.144c.063-.049.124-.1.185-.153.091-.079.178-.16.263-.245a5.116,5.116,0,0,0,1.08-1.592c.016-.037.031-.075.046-.113.031-.076.059-.152.086-.229q.081-.232.139-.475a5.075,5.075,0,0,0,.141-1.129c0-.022,0-.044,0-.066S1201.868,221.1,1201.868,221.07Z" transform="translate(-1125.402 -204.997)" fill="url(#linear-gradient-5)"/>
      <path id="Path_24" data-name="Path 24" d="M891.51,500.18" transform="translate(-856.069 -485.649)" fill="#935c5c"/>
      <path id="Path_25" data-name="Path 25" d="M373.9,927.91a5.181,5.181,0,0,0,.979.262A4.958,4.958,0,0,1,373.9,927.91Z" transform="translate(-359.561 -895.942)" fill="#935c5c" opacity="0.5"/>
      <path id="Path_26" data-name="Path 26" d="M403.778,935.147c-.056,0-.112-.01-.168-.017Z" transform="translate(-388.06 -902.867)" fill="#935c5c" opacity="0.5"/>
      <path id="Path_27" data-name="Path 27" d="M479.571,916.47q-.114.073-.231.138C479.419,916.564,479.5,916.517,479.571,916.47Z" transform="translate(-460.702 -884.968)" fill="#935c5c" opacity="0.5"/>
      <path id="Path_28" data-name="Path 28" d="M492.418,907.57c-.068.056-.137.11-.208.162Q492.317,907.653,492.418,907.57Z" transform="translate(-473.048 -876.431)" fill="#935c5c" opacity="0.5"/>
      <path id="Path_29" data-name="Path 29" d="M522.276,878.18l-.018.028-.028.043Z" transform="translate(-501.844 -848.239)" fill="#935c5c" opacity="0.5"/>
      <path id="Path_30" data-name="Path 30" d="M426.874,928.55a5.01,5.01,0,0,1-1.424.293A5.131,5.131,0,0,0,426.874,928.55Z" transform="translate(-409.009 -896.555)" fill="#935c5c" opacity="0.5"/>
      <path id="Path_31" data-name="Path 31" d="M527.995,866.88c-.024.048-.049.1-.075.143.026-.048.05-.1.074-.143Z" transform="translate(-507.302 -837.4)" fill="#935c5c" opacity="0.5"/>
      <path id="Path_32" data-name="Path 32" d="M28.167,162.034a5.063,5.063,0,0,0,6.733,2.039,5.141,5.141,0,0,0,2.349-2.4l1.062-2.123v0l.005-.011-6.491-12.981h0c-.024-.048-.049-.1-.074-.143a5.093,5.093,0,0,0-9.037,4.7h0Z" transform="translate(-22.174 -143.747)" fill="url(#linear-gradient-6)"/>
      <g id="Group_8" data-name="Group 8" transform="translate(37.339 13.997)" opacity="0.5">
        <path id="Path_33" data-name="Path 33" d="M938.155,487.22l-.075-.15.035.067C938.128,487.165,938.142,487.193,938.155,487.22Z" transform="translate(-938.08 -487.07)" fill="#b0ef9e"/>
      </g>
      <path id="Path_34" data-name="Path 34" d="M186.523,157.3l-1.468,2.936h0l-6.5,12.992h0c-.024.048-.049.1-.074.144l-.033.061-.026.046-.009.015,0,.006-.008.013-.047.079-.029.047-.031.05-.018.028-.028.043-.055.082-.044.064-.052.072-.053.071-.054.069-.055.068-.056.067-.057.066-.058.065q-.044.049-.09.1l-.053.055a5,5,0,0,1-.388.353q-.1.083-.208.162l-.084.06-.061.042-.074.05-.075.049c-.075.047-.152.094-.231.138l-.08.044-.068.036c-.05.026-.1.051-.15.075l-.073.034-.072.033-.022.009-.11.046-.105.042-.093.035a5.131,5.131,0,0,1-1.424.293l-.139.007-.161,0c-.085,0-.17,0-.254-.007l-.084,0-.084-.006-.168-.017-.089-.011-.141-.021h0a5.177,5.177,0,0,1-.979-.262q-.084-.032-.166-.066l-.084-.036-.071-.033-.058-.027-.025-.012-.11-.054-.108-.057-.028-.015-.1-.057-.06-.036-.053-.032-.053-.033-.055-.036-.052-.033-.051-.034-.006,0c-.049-.034-.1-.067-.144-.1q-.107-.079-.208-.162l-.067-.056-.066-.057-.056-.05,0,0-.013-.011,0,0-.056-.052-.063-.06-.029-.029a5.076,5.076,0,0,1-.563-.663l-.051-.073c-.026-.037-.051-.075-.075-.113l-.033-.051c-.036-.057-.072-.116-.106-.175l-.036-.064-.031-.057-.006-.011c-.024-.044-.046-.088-.068-.133h0s-5.679-11.361-5.812-11.636c.012.022.059.116.147.292a5.06,5.06,0,0,0,6.812,2.189,5.142,5.142,0,0,0,2.349-2.4L174,159.556v0l6.5-12.992h0c.023-.046.046-.091.07-.136l0-.007.033-.061.037-.066.01-.018.035-.06h0v0l.035-.057.017-.027.066-.1,0-.007.045-.067h0l.046-.066q.077-.108.159-.212c.036-.046.073-.091.111-.135l.057-.066.058-.065c.019-.021.038-.042.058-.062q.1-.109.213-.213l.055-.051.017-.015.056-.05.066-.057.067-.056.068-.055c.046-.037.093-.072.14-.107l.071-.052q.109-.076.222-.149.147-.094.3-.177l.022-.012.014-.007.091-.048.1-.049.073-.034.093-.042a5.119,5.119,0,0,1,1.872-.423l.161,0h.009l.161,0a5.119,5.119,0,0,1,1.872.423l.093.042.073.034.1.049.021.011.07.037.018.01.018.01.108.06.031.018.01.006,0,0,.074.044.076.047q.113.072.222.149l.071.052.071.053h0l.069.054.068.055.067.056.066.057.056.05.017.015.055.051q.109.1.213.213l.058.062.058.065.057.066c.038.044.075.09.111.135q.082.1.159.212l.046.066.05.075.031.047.035.055.052.084v0c.04.067.079.135.116.2l0,.007c.024.045.047.091.07.136h0l3.461,6.922,2.122,4.245a5.045,5.045,0,0,0-6.748-2.1,5.136,5.136,0,0,0-1.926,1.67Z" transform="translate(-157.863 -143.75)" fill="#f2aa91"/>
      <path id="Path_35" data-name="Path 35" d="M721.1,414.74h0a5.093,5.093,0,0,0-4.433,2.581c-.023.04-.045.08-.067.121-.041.076-.08.154-.117.233l0,.008-2.113,4.226a5.144,5.144,0,0,1-2.2,2.1,5.06,5.06,0,0,1-6.812-2.189c-.088-.175-.135-.269-.147-.292.121.25,4.837,9.684,5.683,11.377v0a5.093,5.093,0,0,0,7.037,2.5h0l.068-.036.025-.014.037-.02.017-.009c.059-.033.117-.068.174-.1l.026-.016.031-.019.075-.049.074-.05c.038-.026.076-.053.113-.08l.031-.022.021-.016.027-.02c.039-.029.077-.06.115-.091h0c.015-.012.03-.023.045-.035a5.024,5.024,0,0,0,.388-.353l.053-.055c.031-.032.061-.064.091-.1l.058-.065.057-.066.056-.067.055-.068.054-.069.053-.071.052-.072.044-.064.055-.082.028-.043.018-.028.031-.05.029-.047c.016-.026.032-.053.047-.079l.008-.013,0-.006.009-.015.026-.046.033-.061c.026-.048.05-.1.074-.143h0l6.5-12.992h0l1.289-2.579h0a5.135,5.135,0,0,1,.353-.6h0a5.092,5.092,0,0,1,4.207-2.219v-.034Z" transform="translate(-677.364 -403.692)" fill="url(#linear-gradient-7)"/>
      <path id="Path_36" data-name="Path 36" d="M696.939,430.728a5.144,5.144,0,0,0,2.2-2.1l1.221-2.441-.959-1.919a5.048,5.048,0,0,0-6.679-1.976,5.137,5.137,0,0,0-1.926,1.67v0l-1.468,2.936h0l0,.006.928,1.857A5.065,5.065,0,0,0,696.939,430.728Z" transform="translate(-662.122 -410.41)" fill="url(#linear-gradient-8)"/>
    </g>
    <text id="WeEngage.io" transform="translate(178.724 127.172)" fill="#503b66" font-size="17" font-family="SegoeUI, Segoe UI"><tspan x="0" y="0">WeEngage.io</tspan></text>
    <ellipse id="Ellipse_3" data-name="Ellipse 3" cx="3.448" cy="4.31" rx="3.448" ry="4.31" transform="translate(163.207 116.069)" fill="#9b8eea"/>
  </g>
</svg>
